<svg xmlns="http://www.w3.org/2000/svg" viewBox="0 0 1280 720">
  <defs>
    <radialGradient id="torch" cx="50%" cy="45%" r="70%">
      <stop offset="0%" stop-color="#3a2a1a"/>
      <stop offset="55%" stop-color="#1c1410"/>
      <stop offset="100%" stop-color="#0a0806"/>
    </radialGradient>
  </defs>
  <rect width="1280" height="720" fill="url(#torch)"/>
  <!-- 封印岩 -->
  <ellipse cx="980" cy="560" rx="210" ry="150" fill="#241c14" stroke="#4a3a26" stroke-width="4"/>
  <!-- 碑文の壁 -->
  <rect x="80" y="120" width="420" height="440" fill="#141010" stroke="#3a2e1e" stroke-width="3" rx="6"/>
  <g fill="none" stroke="#6a5432" stroke-width="2" opacity="0.7">
    <path d="M140 180 q40 40 0 80 q-40 40 0 80 q40 40 0 80"/>
    <path d="M240 180 q40 40 0 80 q-40 40 0 80 q40 40 0 80"/>
    <path d="M340 180 q40 40 0 80 q-40 40 0 80 q40 40 0 80"/>
    <path d="M440 180 q40 40 0 80 q-40 40 0 80 q40 40 0 80"/>
  </g>
  <text x="640" y="80" text-anchor="middle" fill="#7a6242" font-size="34" font-family="serif">試練の間</text>
</svg>
