<svg xmlns="http://www.w3.org/2000/svg" viewBox="0 0 96 96">
  <defs>
    <linearGradient id="bg" x1="0" y1="0" x2="0" y2="1">
      <stop offset="0" stop-color="#3a2e44"/>
      <stop offset="1" stop-color="#241b2c"/>
    </linearGradient>
  </defs>
  <rect width="96" height="96" fill="url(#bg)"/>
  <!-- 髪 (明るいギャル風) -->
  <path d="M20 78 C16 40 28 16 48 16 C68 16 80 40 76 78 L66 78 C70 46 62 28 48 28 C34 28 26 46 30 78 Z" fill="#e8c06a"/>
  <!-- 顔 -->
  <ellipse cx="48" cy="52" rx="20" ry="23" fill="#f3d9c6"/>
  <!-- 前髪 -->
  <path d="M30 40 C34 28 62 28 66 40 C58 36 38 36 30 40 Z" fill="#e8c06a"/>
  <!-- 目 -->
  <ellipse cx="40" cy="52" rx="3.2" ry="4.2" fill="#5a3b2a"/>
  <ellipse cx="56" cy="52" rx="3.2" ry="4.2" fill="#5a3b2a"/>
  <!-- 頬 -->
  <circle cx="37" cy="60" r="3" fill="#f0a9a0" opacity="0.6"/>
  <circle cx="59" cy="60" r="3" fill="#f0a9a0" opacity="0.6"/>
  <!-- 口 -->
  <path d="M43 64 Q48 68 53 64" stroke="#b05a4e" stroke-width="2" fill="none" stroke-linecap="round"/>
</svg>
